<svg width="481" height="481" viewBox="0 0 481 481" fill="none" xmlns="http://www.w3.org/2000/svg">
<path d="M182.568 198.839L70.568 219.199L73.432 234.943L176 216.295V274.023H192V206.711C192 205.539 191.743 204.382 191.246 203.32C190.75 202.259 190.026 201.319 189.126 200.568C188.226 199.817 187.173 199.273 186.039 198.974C184.906 198.676 183.721 198.63 182.568 198.839V198.839Z" fill="white"/>
<path d="M408 312.367C421.9 312.373 435.505 308.354 447.171 300.797C458.837 293.239 468.067 282.467 473.745 269.779C479.423 257.092 481.307 243.032 479.17 229.297C477.033 215.562 470.965 202.74 461.701 192.377C452.436 182.015 440.369 174.556 426.958 170.901C413.547 167.246 399.365 167.551 386.124 171.78C372.882 176.008 361.148 183.979 352.337 194.73C343.527 205.482 338.016 218.553 336.472 232.367H259.312L363.112 128.567C377.524 140.088 395.801 145.653 414.188 144.118C432.575 142.583 449.676 134.065 461.979 120.315C474.282 106.564 480.852 88.6243 480.34 70.1805C479.828 51.7366 472.272 34.189 459.225 21.1422C446.178 8.09543 428.631 0.539968 410.187 0.027839C391.743 -0.48429 373.803 6.08579 360.053 18.3885C346.302 30.6912 337.784 47.7925 336.25 66.1795C334.715 84.5666 340.279 102.843 351.8 117.255L243.952 225.103C241.867 221.28 239.021 217.923 235.589 215.24C232.158 212.557 228.214 210.605 224 209.503V177.967C224 175.624 223.486 173.31 222.493 171.187C221.5 169.065 220.053 167.187 218.255 165.685C216.456 164.183 214.35 163.095 212.084 162.497C209.819 161.898 207.449 161.805 205.144 162.223L38.568 192.495C36.7247 192.831 35.0576 193.803 33.8573 195.241C32.657 196.68 31.9997 198.494 32 200.367V208.367H16C11.7565 208.367 7.68687 210.053 4.68629 213.054C1.68571 216.054 0 220.124 0 224.367V256.367C0 260.611 1.68571 264.681 4.68629 267.681C7.68687 270.682 11.7565 272.367 16 272.367H32V352.367C32 354.489 32.8429 356.524 34.3431 358.024C35.8434 359.525 37.8783 360.367 40 360.367H72C74.1217 360.367 76.1566 359.525 77.6569 358.024C79.1571 356.524 80 354.489 80 352.367V295.767L205.136 318.527C207.443 318.947 209.815 318.855 212.083 318.256C214.35 317.658 216.459 316.568 218.258 315.065C220.058 313.561 221.505 311.68 222.498 309.555C223.49 307.43 224.003 305.113 224 302.767V271.232C228.214 270.13 232.158 268.178 235.589 265.495C239.021 262.812 241.867 259.455 243.952 255.631L351.8 363.479C340.279 377.892 334.715 396.168 336.25 414.555C337.784 432.942 346.302 450.044 360.053 462.346C373.803 474.649 391.743 481.219 410.187 480.707C428.631 480.195 446.178 472.64 459.225 459.593C472.272 446.546 479.828 428.998 480.34 410.555C480.852 392.111 474.282 374.171 461.979 360.42C449.676 346.669 432.575 338.152 414.188 336.617C395.801 335.082 377.524 340.647 363.112 352.167L259.312 248.367H336.472C338.456 265.957 346.843 282.201 360.035 294.004C373.226 305.807 390.299 312.343 408 312.367ZM376.736 118.807C375.716 114.136 375.757 109.295 376.854 104.641C377.951 99.9867 380.077 95.6377 383.077 91.9134C386.076 88.1892 389.871 85.1843 394.184 83.1199C398.497 81.0554 403.218 79.9838 408 79.9838C412.782 79.9838 417.503 81.0554 421.816 83.1199C426.129 85.1843 429.924 88.1892 432.923 91.9134C435.923 95.6377 438.049 99.9867 439.146 104.641C440.243 109.295 440.284 114.136 439.264 118.807C430.028 125.038 419.141 128.367 408 128.367C396.859 128.367 385.972 125.038 376.736 118.807ZM400 56.3675C400 54.7852 400.469 53.2385 401.348 51.9229C402.227 50.6073 403.477 49.5819 404.939 48.9764C406.4 48.3709 408.009 48.2125 409.561 48.5212C411.113 48.8299 412.538 49.5918 413.657 50.7106C414.776 51.8294 415.538 53.2549 415.846 54.8068C416.155 56.3586 415.997 57.9671 415.391 59.429C414.786 60.8908 413.76 62.1402 412.445 63.0192C411.129 63.8983 409.582 64.3675 408 64.3675C405.878 64.3675 403.843 63.5246 402.343 62.0243C400.843 60.524 400 58.4892 400 56.3675ZM408 16.3675C418.065 16.3512 427.948 19.0522 436.606 24.1857C445.264 29.3191 452.376 36.6945 457.191 45.5336C462.005 54.3726 464.345 64.3475 463.962 74.4056C463.579 84.4637 460.489 94.2319 455.016 102.679C453.488 95.375 450.284 88.5257 445.655 82.6723C441.026 76.8189 435.1 72.1217 428.344 68.9515C430.72 65.1832 431.987 60.8222 432 56.3675C432 50.0023 429.471 43.8978 424.971 39.3969C420.47 34.896 414.365 32.3675 408 32.3675C401.635 32.3675 395.53 34.896 391.029 39.3969C386.529 43.8978 384 50.0023 384 56.3675C384.013 60.8222 385.28 65.1832 387.656 68.9515C380.9 72.1217 374.974 76.8189 370.345 82.6723C365.716 88.5257 362.512 95.375 360.984 102.679C355.511 94.2319 352.421 84.4637 352.038 74.4056C351.655 64.3475 353.995 54.3726 358.809 45.5336C363.624 36.6945 370.736 29.3191 379.394 24.1857C388.052 19.0522 397.935 16.3512 408 16.3675ZM16 256.367V224.367H32V256.367H16ZM64 344.367H48V289.967L64 292.879V344.367ZM208 302.767L48 273.695V207.039L208 177.967V302.767ZM224 254.127V226.591C226.429 227.979 228.448 229.984 229.853 232.403C231.257 234.822 231.997 237.57 231.997 240.367C231.997 243.165 231.257 245.913 229.853 248.332C228.448 250.751 226.429 252.756 224 254.143V254.127ZM376.736 454.807C375.716 450.136 375.757 445.295 376.854 440.641C377.951 435.987 380.077 431.638 383.077 427.913C386.076 424.189 389.871 421.184 394.184 419.12C398.497 417.055 403.218 415.984 408 415.984C412.782 415.984 417.503 417.055 421.816 419.12C426.129 421.184 429.924 424.189 432.923 427.913C435.923 431.638 438.049 435.987 439.146 440.641C440.243 445.295 440.284 450.136 439.264 454.807C430.028 461.038 419.141 464.367 408 464.367C396.859 464.367 385.972 461.038 376.736 454.807ZM400 392.367C400 390.785 400.469 389.239 401.348 387.923C402.227 386.607 403.477 385.582 404.939 384.976C406.4 384.371 408.009 384.213 409.561 384.521C411.113 384.83 412.538 385.592 413.657 386.711C414.776 387.829 415.538 389.255 415.846 390.807C416.155 392.359 415.997 393.967 415.391 395.429C414.786 396.891 413.76 398.14 412.445 399.019C411.129 399.898 409.582 400.367 408 400.367C405.878 400.367 403.843 399.525 402.343 398.024C400.843 396.524 400 394.489 400 392.367ZM408 352.367C418.065 352.351 427.948 355.052 436.606 360.186C445.264 365.319 452.376 372.695 457.191 381.534C462.005 390.373 464.345 400.348 463.962 410.406C463.579 420.464 460.489 430.232 455.016 438.68C453.488 431.375 450.284 424.526 445.655 418.672C441.026 412.819 435.1 408.122 428.344 404.952C430.72 401.183 431.987 396.822 432 392.367C432 386.002 429.471 379.898 424.971 375.397C420.47 370.896 414.365 368.367 408 368.367C401.635 368.367 395.53 370.896 391.029 375.397C386.529 379.898 384 386.002 384 392.367C384.013 396.822 385.28 401.183 387.656 404.952C380.9 408.122 374.974 412.819 370.345 418.672C365.716 424.526 362.512 431.375 360.984 438.68C355.511 430.232 352.421 420.464 352.038 410.406C351.655 400.348 353.995 390.373 358.809 381.534C363.624 372.695 370.736 365.319 379.394 360.186C388.052 355.052 397.935 352.351 408 352.367ZM376.736 286.807C375.716 282.136 375.757 277.295 376.854 272.641C377.951 267.987 380.077 263.638 383.077 259.913C386.076 256.189 389.871 253.184 394.184 251.12C398.497 249.055 403.218 247.984 408 247.984C412.782 247.984 417.503 249.055 421.816 251.12C426.129 253.184 429.924 256.189 432.923 259.913C435.923 263.638 438.049 267.987 439.146 272.641C440.243 277.295 440.284 282.136 439.264 286.807C430.028 293.038 419.141 296.367 408 296.367C396.859 296.367 385.972 293.038 376.736 286.807ZM400 224.367C400 222.785 400.469 221.239 401.348 219.923C402.227 218.607 403.477 217.582 404.939 216.976C406.4 216.371 408.009 216.213 409.561 216.521C411.113 216.83 412.538 217.592 413.657 218.711C414.776 219.829 415.538 221.255 415.846 222.807C416.155 224.359 415.997 225.967 415.391 227.429C414.786 228.891 413.76 230.14 412.445 231.019C411.129 231.898 409.582 232.367 408 232.367C405.878 232.367 403.843 231.525 402.343 230.024C400.843 228.524 400 226.489 400 224.367ZM408 184.367C418.065 184.351 427.948 187.052 436.606 192.186C445.264 197.319 452.376 204.695 457.191 213.534C462.005 222.373 464.345 232.348 463.962 242.406C463.579 252.464 460.489 262.232 455.016 270.68C453.488 263.375 450.284 256.526 445.655 250.672C441.026 244.819 435.1 240.122 428.344 236.951C430.72 233.183 431.987 228.822 432 224.367C432 218.002 429.471 211.898 424.971 207.397C420.47 202.896 414.365 200.367 408 200.367C401.635 200.367 395.53 202.896 391.029 207.397C386.529 211.898 384 218.002 384 224.367C384.013 228.822 385.28 233.183 387.656 236.951C380.9 240.122 374.974 244.819 370.345 250.672C365.716 256.526 362.512 263.375 360.984 270.68C355.511 262.232 352.421 252.464 352.038 242.406C351.655 232.348 353.995 222.373 358.809 213.534C363.624 204.695 370.736 197.319 379.394 192.186C388.052 187.052 397.935 184.351 408 184.367Z" fill="white"/>
</svg>
